<?xml version="1.0" encoding="UTF-8" standalone="no"?>
<svg
   xmlns:dc="http://purl.org/dc/elements/1.1/"
   xmlns:cc="http://creativecommons.org/ns#"
   xmlns:rdf="http://www.w3.org/1999/02/22-rdf-syntax-ns#"
   xmlns:svg="http://www.w3.org/2000/svg"
   xmlns="http://www.w3.org/2000/svg"
   xmlns:xlink="http://www.w3.org/1999/xlink"
   xmlns:sodipodi="http://sodipodi.sourceforge.net/DTD/sodipodi-0.dtd"
   xmlns:inkscape="http://www.inkscape.org/namespaces/inkscape"
   id="Camada_1"
   data-name="Camada 1"
   viewBox="0 0 349.99999 349.99999"
   version="1.1"
   sodipodi:docname="marca_vertical_azul_350.svg"
   width="350"
   height="350"
   inkscape:version="0.92.3 (2405546, 2018-03-11)">
  <metadata
     id="metadata798">
    <rdf:RDF>
      <cc:Work
         rdf:about="">
        <dc:format>image/svg+xml</dc:format>
        <dc:type
           rdf:resource="http://purl.org/dc/dcmitype/StillImage" />
        <dc:title></dc:title>
      </cc:Work>
    </rdf:RDF>
  </metadata>
  <sodipodi:namedview
     pagecolor="#ffffff"
     bordercolor="#666666"
     borderopacity="1"
     objecttolerance="10"
     gridtolerance="10"
     guidetolerance="10"
     inkscape:pageopacity="0"
     inkscape:pageshadow="2"
     inkscape:window-width="1920"
     inkscape:window-height="1001"
     id="namedview796"
     showgrid="false"
     inkscape:zoom="1.6989417"
     inkscape:cx="109.00766"
     inkscape:cy="185.53191"
     inkscape:window-x="-9"
     inkscape:window-y="-9"
     inkscape:window-maximized="1"
     inkscape:current-layer="Camada_1" />
  <defs
     id="defs665">
    <style
       id="style654">.cls-1{fill:url(#Gradiente_sem_nome_40);}.cls-2{fill:url(#Gradiente_sem_nome_40-3);}.cls-3{fill:url(#Gradiente_sem_nome_40-5);}.cls-4{fill:#10739e;}</style>
    <linearGradient
       id="Gradiente_sem_nome_40"
       x1="35.919998"
       y1="27.84"
       x2="126.32"
       y2="27.84"
       gradientUnits="userSpaceOnUse">
      <stop
         offset="0"
         stop-color="#23445d"
         id="stop656" />
      <stop
         offset="0.54"
         stop-color="#2883aa"
         id="stop658" />
      <stop
         offset="1"
         stop-color="#b1ddf0"
         id="stop660" />
    </linearGradient>
    <linearGradient
       id="Gradiente_sem_nome_40-3"
       x1="35.919998"
       y1="64.419998"
       x2="126.32"
       y2="64.419998"
       xlink:href="#Gradiente_sem_nome_40"
       gradientTransform="matrix(2.1584953,0,0,2.5196171,0.2943011,2.3544193)" />
    <linearGradient
       id="Gradiente_sem_nome_40-5"
       x1="35.919998"
       y1="46.130001"
       x2="126.32"
       y2="46.130001"
       xlink:href="#Gradiente_sem_nome_40"
       gradientTransform="matrix(2.1584953,0,0,2.5196171,0.2943011,2.3544193)" />
    <linearGradient
       inkscape:collect="always"
       xlink:href="#Gradiente_sem_nome_40"
       id="linearGradient800"
       gradientUnits="userSpaceOnUse"
       x1="35.919998"
       y1="27.84"
       x2="126.32"
       y2="27.84"
       gradientTransform="matrix(2.1584953,0,0,2.5196171,0.2943011,2.3544193)" />
    <linearGradient
       inkscape:collect="always"
       xlink:href="#Gradiente_sem_nome_40"
       id="linearGradient802"
       gradientUnits="userSpaceOnUse"
       x1="35.919998"
       y1="27.84"
       x2="126.32"
       y2="27.84"
       gradientTransform="matrix(2.1584953,0,0,2.5196171,0.2943011,2.3544193)" />
    <linearGradient
       inkscape:collect="always"
       xlink:href="#Gradiente_sem_nome_40"
       id="linearGradient804"
       x1="35.919998"
       y1="64.419998"
       x2="126.32"
       y2="64.419998"
       gradientTransform="matrix(2.1584953,0,0,2.5196171,0.2943011,2.3544193)" />
  </defs>
  <path
     class="cls-1"
     d="M 134.53112,91.599249 A 16.382979,19.123894 0 1 0 118.16973,72.500548 16.382979,19.123894 0 0 0 134.53112,91.599249 Z"
     id="path667"
     inkscape:connector-curvature="0"
     style="fill:url(#linearGradient800);stroke-width:2.33207679" />
  <path
     class="cls-1"
     d="m 216.14383,53.376654 a 16.382979,19.123894 0 1 0 16.36139,19.123894 16.382979,19.123894 0 0 0 -16.36139,-19.123894 z m 0,32.402272 A 11.396855,13.303578 0 1 1 227.5191,72.500548 11.396855,13.303578 0 0 1 216.14383,85.778926 Z"
     id="path669"
     inkscape:connector-curvature="0"
     style="fill:url(#linearGradient802);stroke-width:2.33207679" />
  <path
     class="cls-2"
     d="m 150.89251,164.66815 a 16.361394,19.098697 0 1 0 -16.36139,19.09869 16.382979,19.123894 0 0 0 16.36139,-19.09869 z"
     id="path671"
     inkscape:connector-curvature="0"
     style="fill:url(#linearGradient804);stroke-width:2.33207679" />
  <path
     class="cls-2"
     d="m 216.14383,145.56945 a 16.382979,19.123894 0 1 0 16.36139,19.0987 16.382979,19.123894 0 0 0 -16.36139,-19.0987 z m 0,32.40227 a 11.396855,13.303578 0 1 1 11.37527,-13.30357 11.41844,13.328774 0 0 1 -11.37527,13.30357 z"
     id="path673"
     inkscape:connector-curvature="0"
     style="fill:url(#Gradiente_sem_nome_40-3);stroke-width:2.33207679" />
  <path
     class="cls-3"
     d="M 257.58693,107.44764 A 17.267962,20.156936 0 1 0 240.31897,87.290699 V 101.62733 H 189.85335 V 42.794262 h 12.3466 A 17.267962,20.156936 0 1 0 184.93197,22.637326 v 14.41221 H 165.78612 V 22.511345 a 17.267962,20.156936 0 1 0 -17.26796,20.156936 h 12.3466 v 58.959049 h -50.4872 V 87.240302 A 17.267962,20.156936 0 1 0 93.109578,107.39724 h 12.346602 v 22.27341 H 93.109578 a 17.267962,20.156936 0 1 0 17.267982,20.15695 v -14.28623 h 50.44404 v 58.83306 H 148.475 a 17.267962,20.156936 0 1 0 17.26795,20.15693 v -14.33663 h 19.08111 v 14.38703 a 17.267962,20.156936 0 1 0 17.26796,-20.15694 h -12.23867 v -58.88345 h 50.40086 v 14.38701 a 17.267962,20.156936 0 1 0 17.26797,-20.15694 h -12.3466 v -22.3238 z M 245.24035,87.290699 a 12.346593,14.412209 0 1 1 12.34658,14.387011 h -12.34658 z m -55.387,-64.779354 a 12.346593,14.412209 0 1 1 12.3466,14.412211 h -12.3466 z m -24.06723,20.156936 h 19.08111 v 58.959049 h -19.08111 z m 19.08111,64.653379 v 22.27341 h -19.08111 v -22.14743 z m -74.48967,22.39939 v -22.27341 h 50.44404 v 22.27341 z m 91.80079,70.54928 a 12.346593,14.412209 0 1 1 -12.34658,14.387 v -14.4626 z M 184.91039,194.45 h -19.12427 v -58.90863 h 19.08111 z m 55.387,-64.65336 h -50.44404 v -22.349 h 50.40086 z m 17.26796,5.82031 a 12.346593,14.412209 0 1 1 -12.3466,14.38702 v -14.4626 z"
     id="path675"
     inkscape:connector-curvature="0"
     style="fill:url(#Gradiente_sem_nome_40-5);stroke-width:2.33207679" />
  <path
     class="cls-4"
     d="m 15.403759,305.79188 c -4.187472,0 -6.302796,-2.51961 -6.302796,-6.17306 v -8.39032 c 0,-3.72904 2.158495,-6.17306 6.302796,-6.17306 a 31.103917,36.30768 0 0 1 5.525749,0.62991 l -0.453285,3.90541 a 39.565219,46.184579 0 0 0 -5.050878,-0.50393 c -1.942646,0 -2.417515,1.18421 -2.417515,2.77158 v 6.90374 c 0,1.58737 0.474869,2.87237 2.417515,2.87237 a 15.627506,18.242027 0 0 0 2.30959,-0.17637 v -6.17306 h 3.647856 v 9.47375 a 21.930312,25.599309 0 0 1 -5.979032,1.03304 z"
     id="path677"
     inkscape:connector-curvature="0"
     style="fill:#10739e;stroke-width:2.33207679" />
  <path
     class="cls-4"
     d="m 28.225221,290.77497 v 9.72572 a 0.79864326,0.9322583 0 0 0 0.906568,1.05824 7.4683936,8.7178748 0 0 0 2.719705,-1.05824 v -9.72572 h 3.734196 v 14.71457 h -2.784459 l -0.388528,-1.10864 a 12.950972,15.117702 0 0 1 -5.007709,1.41098 c -2.158496,0 -2.913969,-1.86451 -2.913969,-4.71168 v -10.30523 z"
     id="path679"
     inkscape:connector-curvature="0"
     style="fill:#10739e;stroke-width:2.33207679" />
  <path
     class="cls-4"
     d="m 38.952943,288.93566 v -4.63611 h 3.734195 v 4.63611 z m 0,16.55388 v -14.71457 h 3.734195 v 14.71457 z"
     id="path681"
     inkscape:connector-curvature="0"
     style="fill:#10739e;stroke-width:2.33207679" />
  <path
     class="cls-4"
     d="m 45.406848,295.91499 c 0,-3.47707 1.29509,-5.44238 4.31699,-5.44238 a 14.785693,17.259377 0 0 1 3.21615,0.42833 v -6.14786 l 3.7342,-0.60471 v 21.34117 h -3.02189 l -0.38853,-1.18423 a 7.9000927,9.2217983 0 0 1 -3.88529,1.48657 c -2.54703,0 -3.97163,-1.83931 -3.97163,-5.44236 z m 7.4468,-1.3102 a 11.50478,13.429559 0 0 0 -2.37434,-0.35274 c -0.99291,0 -1.33827,0.68028 -1.33827,1.66294 v 4.43453 c 0,1.03304 0.34536,1.66294 1.33827,1.66294 a 4.3169906,5.039234 0 0 0 2.37434,-1.13383 z"
     id="path683"
     inkscape:connector-curvature="0"
     style="fill:#10739e;stroke-width:2.33207679" />
  <path
     class="cls-4"
     d="m 63.041748,299.66922 v 0.40313 c 0,1.68815 0.56121,2.16688 2.26642,2.16688 a 14.505088,16.931826 0 0 0 3.84212,-0.6551 l 0.53963,3.27551 a 15.109467,17.637319 0 0 1 -4.72711,0.93224 c -4.10114,0 -5.65526,-2.36844 -5.65526,-5.97149 v -3.45186 c 0,-3.17472 1.23035,-5.89592 5.41783,-5.89592 4.18748,0 5.09405,2.89757 5.09405,6.09749 v 3.09912 z m 3.25933,-3.90542 c 0,-1.03304 -0.25902,-1.88971 -1.55412,-1.88971 a 1.4893617,1.7385357 0 0 0 -1.70521,1.88971 v 0.62991 h 3.25933 z"
     id="path685"
     inkscape:connector-curvature="0"
     style="fill:#10739e;stroke-width:2.33207679" />
  <path
     class="cls-4"
     d="m 85.382178,288.00339 a 9.3678695,10.935138 0 0 0 -1.64046,-0.22677 c -1.20875,0 -1.27351,0.60471 -1.27351,1.58737 v 1.71334 h 2.97871 l -0.25901,3.55266 h -2.7197 v 10.85955 h -3.7342 v -10.85955 h -1.92106 v -3.55266 h 1.92106 v -2.21727 c 0,-3.02354 1.23035,-4.71169 4.317,-4.71169 a 12.562442,14.664171 0 0 1 2.84921,0.42834 z"
     id="path687"
     inkscape:connector-curvature="0"
     style="fill:#10739e;stroke-width:2.33207679" />
  <path
     class="cls-4"
     d="m 86.893128,299.84559 v -3.42668 c 0,-3.02353 1.20875,-5.9463 5.69841,-5.9463 4.48969,0 5.69844,2.92277 5.69844,5.9463 v 3.42668 c 0,3.02354 -1.23035,5.94629 -5.69844,5.94629 -4.46808,0 -5.69841,-2.92275 -5.69841,-5.94629 z m 7.66266,0.1259 v -3.67865 c 0,-1.3858 -0.62597,-2.16687 -1.96425,-2.16687 -1.33825,0 -1.96422,0.78107 -1.96422,2.16687 v 3.67865 c 0,1.38578 0.62597,2.16685 1.96422,2.16685 1.33828,0 1.96425,-0.78107 1.96425,-2.16685 z"
     id="path689"
     inkscape:connector-curvature="0"
     style="fill:#10739e;stroke-width:2.33207679" />
  <path
     class="cls-4"
     d="m 104.74389,296.5197 v 8.96984 h -3.73421 v -14.71457 h 3.10824 l 0.25902,1.41098 a 12.303423,14.361817 0 0 1 3.38883,-1.71334 l 0.32378,4.10698 a 16.663583,19.451443 0 0 0 -3.34566,1.94011 z"
     id="path691"
     inkscape:connector-curvature="0"
     style="fill:#10739e;stroke-width:2.33207679" />
  <path
     class="cls-4"
     d="m 129.67451,305.48954 h -4.0364 l -0.92815,-3.93061 h -5.69843 l -0.92815,3.93061 h -4.12272 l 5.26672,-20.15693 h 5.1588 z m -9.86432,-7.71003 h 3.97163 l -1.98583,-8.41552 z"
     id="path693"
     inkscape:connector-curvature="0"
     style="fill:#10739e;stroke-width:2.33207679" />
  <path
     class="cls-4"
     d="m 135.35134,296.5197 v 8.96984 h -3.73419 v -14.71457 h 3.10822 l 0.25902,1.41098 a 12.432933,14.512994 0 0 1 3.41043,-1.71334 l 0.30218,4.10698 a 16.663583,19.451443 0 0 0 -3.34566,1.94011 z"
     id="path695"
     inkscape:connector-curvature="0"
     style="fill:#10739e;stroke-width:2.33207679" />
  <path
     class="cls-4"
     d="m 144.78397,305.79188 c -2.41752,0 -3.79896,-1.05824 -3.79896,-3.77942 v -7.73523 h -1.72679 v -3.50226 h 1.72679 v -3.52746 l 3.71261,-0.60472 v 4.13218 h 2.87081 l -0.19427,3.50226 h -2.67654 v 7.13053 c 0,0.6047 0.32378,0.83147 0.77706,0.83147 a 5.3530683,6.2486502 0 0 0 1.55413,-0.27717 l 0.45327,3.27551 a 8.4613014,9.8768988 0 0 1 -2.69811,0.55431 z"
     id="path697"
     inkscape:connector-curvature="0"
     style="fill:#10739e;stroke-width:2.33207679" />
  <path
     class="cls-4"
     d="m 149.87802,288.93566 v -4.63611 h 3.66945 v 4.63611 z m 0,16.55388 v -14.71457 h 3.66945 v 14.71457 z"
     id="path699"
     inkscape:connector-curvature="0"
     style="fill:#10739e;stroke-width:2.33207679" />
  <path
     class="cls-4"
     d="m 166.64952,305.48954 v -11.23749 h -5.18038 v 11.23749 h -3.73421 v -11.23749 h -1.92106 v -3.47708 h 1.92106 v -1.91491 c 0,-3.02354 1.20877,-4.71169 4.317,-4.71169 a 8.8498307,10.33043 0 0 1 2.5902,0.40314 l -0.47487,3.40148 a 8.4181316,9.8265063 0 0 0 -1.38144,-0.17637 c -1.20875,0 -1.27351,0.60471 -1.27351,1.58737 v 1.41098 h 8.893 v 14.71457 z m 0,-16.55388 v -4.63611 h 3.71261 v 4.63611 z"
     id="path701"
     inkscape:connector-curvature="0"
     style="fill:#10739e;stroke-width:2.33207679" />
  <path
     class="cls-4"
     d="m 176.68653,299.87079 c 0,1.51177 0.5612,2.19207 2.1585,2.19207 a 10.252853,11.968181 0 0 0 2.59019,-0.35276 l 0.47487,3.62825 a 13.7712,16.075157 0 0 1 -3.06506,0.45353 c -4.07956,0 -5.76318,-1.78891 -5.76318,-5.97149 v -3.37629 c 0,-4.18255 1.68362,-5.97149 5.76318,-5.97149 a 13.7712,16.075157 0 0 1 3.06506,0.45353 l -0.5828,3.70385 a 12.087573,14.109855 0 0 0 -2.59019,-0.35276 c -1.48937,0 -2.1585,0.6803 -2.1585,2.19207 z"
     id="path703"
     inkscape:connector-curvature="0"
     style="fill:#10739e;stroke-width:2.33207679" />
  <path
     class="cls-4"
     d="m 184.26284,288.93566 v -4.63611 h 3.82054 v 4.63611 z m 0,16.55388 v -14.71457 h 3.82054 v 14.71457 z"
     id="path705"
     inkscape:connector-curvature="0"
     style="fill:#10739e;stroke-width:2.33207679" />
  <path
     class="cls-4"
     d="m 198.12039,305.48954 -0.25902,-0.93227 a 7.7274131,9.0202289 0 0 1 -3.6047,1.23461 c -2.33117,0 -3.2809,-1.9653 -3.2809,-4.45972 0,-2.97315 1.16559,-4.15736 3.75578,-4.15736 h 2.69811 v -1.10863 c 0,-1.51178 -0.21583,-2.04089 -2.15849,-2.04089 a 19.124268,22.323807 0 0 0 -3.41041,0.42834 l -0.49646,-3.25031 a 17.548567,20.484487 0 0 1 4.53283,-0.7307 c 4.317,0 5.33149,1.53697 5.33149,5.61875 v 9.39818 z m -0.69073,-5.29119 h -1.76996 c -0.79864,0 -1.12241,0.25194 -1.12241,1.05823 0,0.80628 0.2806,1.15902 1.0145,1.15902 a 4.165896,4.8628608 0 0 0 1.87787,-0.52911 z"
     id="path707"
     inkscape:connector-curvature="0"
     style="fill:#10739e;stroke-width:2.33207679" />
  <path
     class="cls-4"
     d="m 204.2721,305.48954 v -20.73646 l 3.73419,-0.60471 v 21.34117 z"
     id="path709"
     inkscape:connector-curvature="0"
     style="fill:#10739e;stroke-width:2.33207679" />
  <path
     class="cls-4"
     d="m 216.94247,305.48954 v -20.15693 h 3.88528 v 20.15693 z"
     id="path711"
     inkscape:connector-curvature="0"
     style="fill:#10739e;stroke-width:2.33207679" />
  <path
     class="cls-4"
     d="m 231.68498,305.48954 v -9.72574 a 0.79864326,0.9322583 0 0 0 -0.90657,-1.05824 7.0798645,8.2643438 0 0 0 -2.71969,1.05824 v 9.72574 h -3.7342 v -14.71457 h 2.78447 l 0.38852,1.10864 a 12.950972,15.117702 0 0 1 5.00771,-1.411 c 2.1585,0 2.91397,1.86453 2.91397,4.71169 v 10.30524 z"
     id="path713"
     inkscape:connector-curvature="0"
     style="fill:#10739e;stroke-width:2.33207679" />
  <path
     class="cls-4"
     d="m 242.86599,305.79188 c -2.39593,0 -3.79895,-1.05824 -3.79895,-3.77942 v -7.73523 h -1.70521 v -3.50226 h 1.70521 v -3.52746 l 3.73419,-0.60472 v 4.13218 h 2.87081 l -0.21586,3.50226 h -2.65495 v 7.13053 c 0,0.6047 0.3022,0.83147 0.77708,0.83147 a 5.5689178,6.5006118 0 0 0 1.55411,-0.27717 l 0.43169,3.27551 a 8.2670368,9.6501331 0 0 1 -2.69812,0.55431 z"
     id="path715"
     inkscape:connector-curvature="0"
     style="fill:#10739e;stroke-width:2.33207679" />
  <path
     class="cls-4"
     d="m 251.06827,299.66922 v 0.40313 c 0,1.68815 0.56122,2.16688 2.1585,2.16688 a 14.505088,16.931826 0 0 0 3.84212,-0.6551 l 0.53962,3.27551 a 15.109467,17.637319 0 0 1 -4.74869,0.93224 c -4.07955,0 -5.63367,-2.36844 -5.63367,-5.97149 v -3.45186 c 0,-3.17472 1.20877,-5.89592 5.41782,-5.89592 4.20906,0 5.09405,2.89757 5.09405,6.09749 v 3.09912 z m 3.25934,-3.90542 c 0,-1.03304 -0.25902,-1.88971 -1.55411,-1.88971 a 1.4893617,1.7385357 0 0 0 -1.70523,1.88971 v 0.62991 h 3.25934 z"
     id="path717"
     inkscape:connector-curvature="0"
     style="fill:#10739e;stroke-width:2.33207679" />
  <path
     class="cls-4"
     d="m 260.56566,305.48954 v -20.73646 l 3.7342,-0.60471 v 21.34117 z"
     id="path719"
     inkscape:connector-curvature="0"
     style="fill:#10739e;stroke-width:2.33207679" />
  <path
     class="cls-4"
     d="m 267.6671,305.48954 v -20.73646 l 3.73419,-0.60471 v 21.34117 z"
     id="path721"
     inkscape:connector-curvature="0"
     style="fill:#10739e;stroke-width:2.33207679" />
  <path
     class="cls-4"
     d="m 274.76856,288.93566 v -4.63611 h 3.71261 v 4.63611 z m 0,16.55388 v -14.71457 h 3.71261 v 14.71457 z"
     id="path723"
     inkscape:connector-curvature="0"
     style="fill:#10739e;stroke-width:2.33207679" />
  <path
     class="cls-4"
     d="m 281.07136,295.28509 c 0,-2.97315 1.46778,-4.81248 5.1588,-4.81248 a 8.9577554,10.456411 0 0 1 2.15849,0.30236 h 3.92847 v 2.04088 l -1.27351,0.55433 a 4.5328401,5.2911958 0 0 1 0.34536,1.91491 v 1.76372 c 0,2.82198 -1.68362,4.68649 -5.15881,4.68649 h -0.38853 c -0.25902,0.20157 -0.53962,0.40313 -0.53962,0.83147 a 0.49645392,0.57951191 0 0 0 0.41011,0.60472 l 3.12982,0.35274 c 2.1585,0.22677 3.06507,1.05824 3.06507,3.60306 0,3.52745 -1.89948,4.61089 -5.80636,4.61089 a 21.584953,25.196171 0 0 1 -5.02929,-0.75588 l 0.5612,-3.17471 a 18.2177,21.265568 0 0 0 4.14432,0.6047 c 1.94264,0 2.69812,0 2.69812,-1.05824 0,-0.55432 -0.21586,-0.7055 -0.97133,-0.80627 l -3.21616,-0.35276 c -1.7052,-0.22677 -2.69811,-0.6551 -2.69811,-2.67079 a 3.1082331,3.6282486 0 0 1 1.10084,-2.69598 3.4320075,4.0061911 0 0 1 -1.61888,-3.77944 z m 6.84244,1.56215 v -1.38578 c 0,-0.95746 -0.43171,-1.53697 -1.68364,-1.53697 -1.25192,0 -1.68363,0.57951 -1.68363,1.53697 v 1.38578 c 0,1.00786 0.47488,1.46138 1.68363,1.46138 1.20876,0 1.68364,-0.45352 1.68364,-1.46138 z"
     id="path725"
     inkscape:connector-curvature="0"
     style="fill:#10739e;stroke-width:2.33207679" />
  <path
     class="cls-4"
     d="m 297.47592,299.66922 v 0.40313 c 0,1.68815 0.56121,2.16688 2.15849,2.16688 a 14.505088,16.931826 0 0 0 3.84212,-0.6551 l 0.53964,3.27551 a 15.109467,17.637319 0 0 1 -4.7271,0.93224 c -4.10114,0 -5.65528,-2.36844 -5.65528,-5.97149 v -3.45186 c 0,-3.17472 1.23035,-5.89592 5.41784,-5.89592 4.18748,0 5.09405,2.89757 5.09405,6.09749 v 3.09912 z m 3.25933,-3.90542 c 0,-1.03304 -0.25902,-1.88971 -1.55411,-1.88971 a 1.4893617,1.7385357 0 0 0 -1.70522,1.88971 v 0.62991 h 3.25933 z"
     id="path727"
     inkscape:connector-curvature="0"
     style="fill:#10739e;stroke-width:2.33207679" />
  <path
     class="cls-4"
     d="m 314.33376,305.48954 v -9.72574 a 0.79864326,0.9322583 0 0 0 -0.90656,-1.05824 7.0798645,8.2643438 0 0 0 -2.7197,1.05824 v 9.72574 h -3.73419 v -14.71457 h 2.78446 l 0.38853,1.10864 a 12.950972,15.117702 0 0 1 5.0077,-1.411 c 2.1585,0 2.91397,1.86453 2.91397,4.71169 v 10.30524 z"
     id="path729"
     inkscape:connector-curvature="0"
     style="fill:#10739e;stroke-width:2.33207679" />
  <path
     class="cls-4"
     d="m 324.26285,299.87079 c 0,1.51177 0.53962,2.19207 2.05057,2.19207 a 10.209683,11.917789 0 0 0 2.5686,-0.35276 l 0.47488,3.62825 a 13.749615,16.04996 0 0 1 -3.04348,0.45353 c -4.10114,0 -5.78477,-1.78891 -5.78477,-5.97149 v -3.37629 c 0,-4.18255 1.68363,-5.97149 5.78477,-5.97149 a 13.749615,16.04996 0 0 1 3.04348,0.45353 l -0.47488,3.62825 a 12.065989,14.084659 0 0 0 -2.5686,-0.35274 c -1.51095,0 -2.05057,0.6803 -2.05057,2.19206 z"
     id="path731"
     inkscape:connector-curvature="0"
     style="fill:#10739e;stroke-width:2.33207679" />
  <path
     class="cls-4"
     d="m 334.86106,299.66922 v 0.40313 c 0,1.68815 0.56122,2.16688 2.1585,2.16688 a 14.505088,16.931826 0 0 0 3.84212,-0.6551 l 0.53962,3.27551 a 15.109467,17.637319 0 0 1 -4.72711,0.93224 c -4.10114,0 -5.65525,-2.36844 -5.65525,-5.97149 v -3.45186 c 0,-3.17472 1.23035,-5.89592 5.41783,-5.89592 4.18747,0 5.09404,2.89757 5.09404,6.09749 v 3.09912 z m 3.25934,-3.90542 c 0,-1.03304 -0.25902,-1.88971 -1.55412,-1.88971 a 1.4893617,1.7385357 0 0 0 -1.70522,1.88971 v 0.62991 h 3.25934 z"
     id="path733"
     inkscape:connector-curvature="0"
     style="fill:#10739e;stroke-width:2.33207679" />
  <path
     class="cls-4"
     d="M 0.2943011,345.80341 V 325.64647 H 11.086777 v 4.03139 H 4.179592 v 3.67863 h 6.475486 v 4.10698 H 4.179592 v 4.38413 h 6.907185 v 4.00621 z"
     id="path735"
     inkscape:connector-curvature="0"
     style="fill:#10739e;stroke-width:2.33207679" />
  <path
     class="cls-4"
     d="m 18.339313,346.10575 c -2.39593,0 -3.798951,-1.05824 -3.798951,-3.77942 v -7.73521 h -1.705203 v -3.50228 h 1.705203 v -3.52746 l 3.734196,-0.6047 v 4.13216 h 2.870799 l -0.215849,3.50228 h -2.65495 v 7.13051 c 0,0.6047 0.30219,0.83147 0.777059,0.83147 a 5.5689178,6.5006118 0 0 0 1.554115,-0.27717 l 0.4317,3.27551 a 8.2670368,9.6501331 0 0 1 -2.698119,0.55431 z"
     id="path737"
     inkscape:connector-curvature="0"
     style="fill:#10739e;stroke-width:2.33207679" />
  <path
     class="cls-4"
     d="m 30.793831,345.80341 v -9.72572 a 0.79864326,0.9322583 0 0 0 -0.906568,-1.05824 7.8785077,9.1966021 0 0 0 -2.698119,1.08344 v 9.70052 h -3.734198 v -20.73646 l 3.669443,-0.60471 v 7.55887 a 11.28893,13.177597 0 0 1 4.511255,-1.36061 c 2.158495,0 2.892383,1.86452 2.892383,4.71169 v 10.30523 z"
     id="path739"
     inkscape:connector-curvature="0"
     style="fill:#10739e;stroke-width:2.33207679" />
  <path
     class="cls-4"
     d="m 37.765771,329.24953 v -4.6361 h 3.734197 v 4.6361 z m 0,16.55388 v -14.71457 h 3.734197 v 14.71457 z"
     id="path741"
     inkscape:connector-curvature="0"
     style="fill:#10739e;stroke-width:2.33207679" />
  <path
     class="cls-4"
     d="m 47.781188,340.18465 c 0,1.51178 0.53962,2.19208 2.05057,2.19208 a 10.382362,12.119358 0 0 0 2.59019,-0.35274 l 0.45329,3.62825 a 13.749615,16.04996 0 0 1 -3.04348,0.45351 c -4.10114,0 -5.78477,-1.78892 -5.78477,-5.97147 v -3.37631 c 0,-4.18256 1.68363,-5.97147 5.78477,-5.97147 a 13.749615,16.04996 0 0 1 3.04348,0.45351 l -0.41011,3.70385 a 12.260253,14.311425 0 0 0 -2.5902,-0.35274 c -1.51095,0 -2.05057,0.68028 -2.05057,2.19205 z"
     id="path743"
     inkscape:connector-curvature="0"
     style="fill:#10739e;stroke-width:2.33207679" />
  <path
     class="cls-4"
     d="m 62.135178,345.80341 -0.25901,-0.93227 a 7.7274131,9.0202289 0 0 1 -3.58311,1.23461 c -2.33117,0 -3.3025,-1.96529 -3.3025,-4.45972 0,-2.97315 1.16559,-4.15736 3.75579,-4.15736 h 2.7197 v -1.10864 c 0,-1.51177 -0.23743,-2.04088 -2.1585,-2.04088 a 18.908418,22.071845 0 0 0 -3.41042,0.42834 l -0.49645,-3.25031 a 17.548567,20.484487 0 0 1 4.53284,-0.73068 c 4.31699,0 5.33148,1.53695 5.33148,5.61873 v 9.39818 z m -0.66913,-5.2912 h -1.79155 c -0.79864,0 -1.10083,0.25197 -1.10083,1.05824 0,0.80628 0.2806,1.15902 1.01449,1.15902 a 4.165896,4.8628608 0 0 0 1.87789,-0.52911 z"
     id="path745"
     inkscape:connector-curvature="0"
     style="fill:#10739e;stroke-width:2.33207679" />
  <path
     class="cls-4"
     d="m 68.308478,345.80341 v -20.73646 l 3.7342,-0.60471 v 21.34117 z"
     id="path747"
     inkscape:connector-curvature="0"
     style="fill:#10739e;stroke-width:2.33207679" />
  <path
     class="cls-4"
     d="m 87.001058,339.55475 h -2.26643 v 6.24866 h -3.8853 v -20.15694 h 7.16622 c 4.18747,0 5.7416,1.94011 5.7416,5.71953 v 2.51962 a 4.1874808,4.8880569 0 0 1 -2.50386,5.03923 l 4.1659,6.87856 h -4.5976 z m 2.87079,-7.73521 c 0,-1.51178 -0.47488,-2.11648 -2.1585,-2.11648 h -2.97872 v 5.9211 h 3.06506 c 1.66205,0 2.1585,-0.7055 2.1585,-2.21727 z"
     id="path749"
     inkscape:connector-curvature="0"
     style="fill:#10739e;stroke-width:2.33207679" />
  <path
     class="cls-4"
     d="m 100.57799,339.98309 v 0.40313 c 0,1.68815 0.5828,2.16688 2.288,2.16688 a 14.224484,16.604276 0 0 0 3.82054,-0.6551 l 0.53962,3.2755 a 14.936787,17.43575 0 0 1 -4.7271,0.93225 c -4.101142,0 -5.655262,-2.36842 -5.655262,-5.97147 v -3.45188 c 0,-3.17472 1.23033,-5.8959 5.417822,-5.8959 4.18748,0 5.09405,2.89755 5.09405,6.09746 v 3.09913 z m 3.32408,-3.9054 c 0,-1.03304 -0.25902,-1.88971 -1.55412,-1.88971 a 1.4893617,1.7385357 0 0 0 -1.70522,1.88971 v 0.6299 h 3.25934 z"
     id="path751"
     inkscape:connector-curvature="0"
     style="fill:#10739e;stroke-width:2.33207679" />
  <path
     class="cls-4"
     d="m 115.49319,330.7865 a 34.125811,39.835144 0 0 1 5.13722,0.50391 v 20.45929 l -3.7342,0.60471 v -7.05493 a 9.8643234,11.51465 0 0 1 -3.56151,0.80627 c -2.80605,0 -3.88531,-2.01568 -3.88531,-5.31639 v -3.80462 c 0,-3.50226 0.92817,-6.19824 6.0438,-6.19824 z m 1.40302,3.82982 c -0.53963,0 -1.01449,0 -1.53253,0 -1.85631,0 -2.15849,0.98264 -2.15849,2.51961 v 3.80462 a 1.1871724,1.3857894 0 0 0 1.35984,1.56215 5.3962382,6.2990425 0 0 0 2.37435,-0.80627 z"
     id="path753"
     inkscape:connector-curvature="0"
     style="fill:#10739e;stroke-width:2.33207679" />
  <path
     class="cls-4"
     d="m 127.64552,331.08884 v 9.72572 a 0.79864326,0.9322583 0 0 0 0.90656,1.05824 7.4683936,8.7178748 0 0 0 2.7197,-1.05824 v -9.72572 h 3.71261 v 14.71457 h -2.80604 l -0.38853,-1.10864 a 12.950972,15.117702 0 0 1 -5.02929,1.41098 c -2.15849,0 -2.89239,-1.86451 -2.89239,-4.71167 v -10.30524 z"
     id="path755"
     inkscape:connector-curvature="0"
     style="fill:#10739e;stroke-width:2.33207679" />
  <path
     class="cls-4"
     d="m 138.43799,329.24953 v -4.6361 h 3.71261 v 4.6361 z m 0,16.55388 v -14.71457 h 3.71261 v 14.71457 z"
     id="path757"
     inkscape:connector-curvature="0"
     style="fill:#10739e;stroke-width:2.33207679" />
  <path
     class="cls-4"
     d="m 149.23047,336.83357 v 8.96984 h -3.82054 v -14.71457 h 3.10823 l 0.25902,1.41098 a 12.432933,14.512994 0 0 1 3.41043,-1.71332 l 0.30218,4.10696 a 16.663583,19.451443 0 0 0 -3.25932,1.94011 z"
     id="path759"
     inkscape:connector-curvature="0"
     style="fill:#10739e;stroke-width:2.33207679" />
  <path
     class="cls-4"
     d="m 157.43275,339.98309 v 0.40313 c 0,1.68815 0.5828,2.16688 2.28801,2.16688 a 14.224484,16.604276 0 0 0 3.82053,-0.6551 l 0.53962,3.2755 a 15.109467,17.637319 0 0 1 -4.7271,0.93225 c -4.10114,0 -5.65525,-2.36842 -5.65525,-5.97147 v -3.45188 c 0,-3.17472 1.23033,-5.8959 5.41781,-5.8959 4.18749,0 5.09405,2.89755 5.09405,6.09746 v 3.09913 z m 3.25934,-3.9054 c 0,-1.03304 -0.25902,-1.88971 -1.55414,-1.88971 a 1.4893617,1.7385357 0 0 0 -1.7052,1.88971 v 0.6299 h 3.25934 z"
     id="path761"
     inkscape:connector-curvature="0"
     style="fill:#10739e;stroke-width:2.33207679" />
  <path
     class="cls-4"
     d="m 174.2906,345.80341 v -9.72572 a 0.79864326,0.9322583 0 0 0 -0.90657,-1.05824 7.0798645,8.2643438 0 0 0 -2.7197,1.05824 v 9.72572 h -3.71261 v -14.71457 h 2.76286 l 0.38853,1.10864 a 12.950972,15.117702 0 0 1 5.02931,-1.41098 2.4175148,2.821971 0 0 1 2.288,1.41098 12.260253,14.311425 0 0 1 5.05087,-1.41098 c 2.1585,0 2.91398,1.86451 2.91398,4.71167 v 10.30524 h -3.77738 v -9.72572 a 0.79864326,0.9322583 0 0 0 -0.90656,-1.05824 7.0798645,8.2643438 0 0 0 -2.7197,1.05824 v 9.72572 z"
     id="path763"
     inkscape:connector-curvature="0"
     style="fill:#10739e;stroke-width:2.33207679" />
  <path
     class="cls-4"
     d="m 191.70965,339.98309 v 0.40313 c 0,1.68815 0.56122,2.16688 2.15849,2.16688 a 14.505088,16.931826 0 0 0 3.84212,-0.6551 l 0.53964,3.2755 a 15.109467,17.637319 0 0 1 -4.7271,0.93225 c -4.10114,0 -5.65527,-2.36842 -5.65527,-5.97147 v -3.45188 c 0,-3.17472 1.20876,-5.8959 5.41783,-5.8959 4.20907,0 5.09405,2.89755 5.09405,6.09746 v 3.09913 z m 3.25933,-3.9054 c 0,-1.03304 -0.25901,-1.88971 -1.55411,-1.88971 a 1.4893617,1.7385357 0 0 0 -1.70522,1.88971 v 0.6299 h 3.25933 z"
     id="path765"
     inkscape:connector-curvature="0"
     style="fill:#10739e;stroke-width:2.33207679" />
  <path
     class="cls-4"
     d="m 208.5675,345.80341 v -9.72572 a 0.79864326,0.9322583 0 0 0 -0.90657,-1.05824 7.0798645,8.2643438 0 0 0 -2.7197,1.05824 v 9.72572 h -3.73419 v -14.71457 h 2.78446 l 0.38853,1.10864 a 12.950972,15.117702 0 0 1 5.0077,-1.41098 c 2.1585,0 2.91398,1.86451 2.91398,4.71167 v 10.30524 z"
     id="path767"
     inkscape:connector-curvature="0"
     style="fill:#10739e;stroke-width:2.33207679" />
  <path
     class="cls-4"
     d="m 219.74851,346.10575 c -2.39593,0 -3.79896,-1.05824 -3.79896,-3.77942 v -7.73521 h -1.7052 v -3.50228 h 1.7052 v -3.52746 l 3.7342,-0.6047 v 4.13216 h 2.93555 l -0.21584,3.50228 h -2.65495 v 7.13051 c 0,0.6047 0.30218,0.83147 0.77706,0.83147 a 5.5689178,6.5006118 0 0 0 1.55411,-0.27717 l 0.43171,3.27551 a 8.2670368,9.6501331 0 0 1 -2.76288,0.55431 z"
     id="path769"
     inkscape:connector-curvature="0"
     style="fill:#10739e;stroke-width:2.33207679" />
  <path
     class="cls-4"
     d="m 228.79261,346.10575 a 16.771508,19.577424 0 0 1 -4.57601,-0.88185 l 0.58278,-3.22511 a 14.116559,16.478295 0 0 0 3.82054,0.6551 c 1.10084,0 1.29511,-0.35276 1.29511,-1.23463 0,-0.88185 0,-1.05824 -2.05059,-1.63774 -3.06506,-0.85667 -3.34566,-1.83932 -3.34566,-4.5857 0,-2.74638 1.03607,-4.40932 4.81345,-4.40932 a 18.951589,22.122237 0 0 1 3.84212,0.47871 l -0.34537,3.37629 a 22.275671,26.002448 0 0 0 -3.47517,-0.40314 c -1.07924,0 -1.33826,0.32756 -1.33826,0.98266 0,0.6551 0,1.03304 1.59728,1.43618 3.60468,0.93226 3.8637,1.83931 3.8637,4.76206 0,2.92277 -1.07924,4.68649 -4.68392,4.68649 z"
     id="path771"
     inkscape:connector-curvature="0"
     style="fill:#10739e;stroke-width:2.33207679" />
  <path
     class="cls-4"
     d="m 241.50614,345.80341 v -20.15694 h 10.79248 v 4.03139 h -6.97195 v 3.67863 h 6.4755 v 4.10698 h -6.4755 v 4.38413 h 6.97195 v 4.00621 z"
     id="path773"
     inkscape:connector-curvature="0"
     style="fill:#10739e;stroke-width:2.33207679" />
  <path
     class="cls-4"
     d="m 255.3421,345.80341 v -20.73646 l 3.7342,-0.60471 v 21.34117 z"
     id="path775"
     inkscape:connector-curvature="0"
     style="fill:#10739e;stroke-width:2.33207679" />
  <path
     class="cls-4"
     d="m 262.44354,329.24953 v -4.6361 h 3.73419 v 4.6361 z m 0,16.55388 v -14.71457 h 3.73419 v 14.71457 z"
     id="path777"
     inkscape:connector-curvature="0"
     style="fill:#10739e;stroke-width:2.33207679" />
  <path
     class="cls-4"
     d="m 272.48055,340.18465 c 0,1.51178 0.5612,2.19208 2.1585,2.19208 a 10.252853,11.968181 0 0 0 2.59019,-0.35274 l 0.47487,3.62825 a 13.7712,16.075157 0 0 1 -3.06506,0.45351 c -4.07956,0 -5.76318,-1.78892 -5.76318,-5.97147 v -3.37631 c 0,-4.18256 1.68362,-5.97147 5.76318,-5.97147 a 13.7712,16.075157 0 0 1 3.06506,0.45351 l -0.47487,3.62825 a 12.087573,14.109855 0 0 0 -2.59019,-0.35274 c -1.48937,0 -2.1585,0.6803 -2.1585,2.19207 z"
     id="path779"
     inkscape:connector-curvature="0"
     style="fill:#10739e;stroke-width:2.33207679" />
  <path
     class="cls-4"
     d="m 280.05686,329.24953 v -4.6361 h 3.7342 v 4.6361 z m 0,16.55388 v -14.71457 h 3.7342 v 14.71457 z"
     id="path781"
     inkscape:connector-curvature="0"
     style="fill:#10739e;stroke-width:2.33207679" />
  <path
     class="cls-4"
     d="m 291.36739,346.10575 c -2.39594,0 -3.79896,-1.05824 -3.79896,-3.77942 v -7.73521 h -1.7052 v -3.50228 h 1.7052 v -3.52746 l 3.73419,-0.6047 v 4.13216 h 2.87081 l -0.21585,3.50228 h -2.65496 v 7.13051 c 0,0.6047 0.30221,0.83147 0.77706,0.83147 a 5.5689178,6.5006118 0 0 0 1.55411,-0.27717 l 0.43172,3.27551 a 8.2670368,9.6501331 0 0 1 -2.69812,0.55431 z"
     id="path783"
     inkscape:connector-curvature="0"
     style="fill:#10739e;stroke-width:2.33207679" />
  <path
     class="cls-4"
     d="m 303.23911,345.80341 -0.25902,-0.93227 a 7.7274131,9.0202289 0 0 1 -3.6047,1.23461 c -2.33117,0 -3.2809,-1.96529 -3.2809,-4.45972 0,-2.97315 1.16559,-4.15736 3.75578,-4.15736 h 2.63337 v -1.10864 c 0,-1.51177 -0.23744,-2.04088 -2.1585,-2.04088 a 19.124268,22.323807 0 0 0 -3.41043,0.42834 l -0.49645,-3.25031 a 17.678076,20.635663 0 0 1 4.53285,-0.73068 c 4.31697,0 5.33147,1.53695 5.33147,5.61873 v 9.39818 z m -0.66914,-5.2912 h -1.79155 c -0.79864,0 -1.12241,0.25197 -1.12241,1.05824 0,0.80628 0.2806,1.15902 1.01448,1.15902 a 4.3169906,5.039234 0 0 0 1.89948,-0.52911 z"
     id="path785"
     inkscape:connector-curvature="0"
     style="fill:#10739e;stroke-width:2.33207679" />
  <path
     class="cls-4"
     d="m 313.62147,346.10575 c -2.41752,0 -3.79896,-1.05824 -3.79896,-3.77942 v -7.73521 h -1.7052 v -3.50228 h 1.7052 v -3.52746 l 3.71261,-0.6047 v 4.13216 h 2.89239 l -0.21585,3.50228 h -2.67654 v 7.13051 c 0,0.6047 0.32379,0.83147 0.77706,0.83147 a 5.3530683,6.2486502 0 0 0 1.55412,-0.27717 l 0.45329,3.27551 a 8.3533767,9.7509179 0 0 1 -2.69812,0.55431 z"
     id="path787"
     inkscape:connector-curvature="0"
     style="fill:#10739e;stroke-width:2.33207679" />
  <path
     class="cls-4"
     d="m 318.7371,329.24953 v -4.6361 h 3.71261 v 4.6361 z m 0,16.55388 v -14.71457 h 3.71261 v 14.71457 z"
     id="path789"
     inkscape:connector-curvature="0"
     style="fill:#10739e;stroke-width:2.33207679" />
  <path
     class="cls-4"
     d="m 325.16941,340.15946 v -3.42667 c 0,-3.02354 1.23035,-5.94629 5.69844,-5.94629 4.46808,0 5.69843,2.92275 5.69843,5.94629 v 3.42667 c 0,3.02354 -1.20877,5.94629 -5.69843,5.94629 -4.48967,0 -5.69844,-2.92275 -5.69844,-5.94629 z m 7.66266,0.1259 v -3.67865 c 0,-1.38578 -0.60436,-2.16688 -1.96422,-2.16688 -1.35986,0 -1.96423,0.7811 -1.96423,2.16688 v 3.67865 c 0,1.38578 0.62595,2.16687 1.96423,2.16687 1.33826,0 1.96422,-0.78109 1.96422,-2.16687 z"
     id="path791"
     inkscape:connector-curvature="0"
     style="fill:#10739e;stroke-width:2.33207679" />
  <path
     class="cls-4"
     d="m 346.64644,345.80341 v -9.72572 a 0.79864326,0.9322583 0 0 0 -0.9929,-1.13383 7.0798645,8.2643438 0 0 0 -2.71971,1.05824 v 9.72571 h -3.7342 v -14.71456 h 2.78447 l 0.38853,1.10863 a 12.950972,15.117702 0 0 1 5.0077,-1.41098 c 2.1585,0 2.91397,1.86451 2.91397,4.71169 v 10.30522 z"
     id="path793"
     inkscape:connector-curvature="0"
     style="fill:#10739e;stroke-width:2.33207679" />
</svg>
