<svg id="Camada_1" data-name="Camada 1" xmlns="http://www.w3.org/2000/svg" xmlns:xlink="http://www.w3.org/1999/xlink" viewBox="0 0 256.18 60.99"><defs><style>.cls-1{fill:url(#Gradiente_sem_nome_40);}.cls-2{fill:url(#Gradiente_sem_nome_40-3);}.cls-3{fill:url(#Gradiente_sem_nome_40-5);}.cls-4{fill:#10739e;}</style><linearGradient id="Gradiente_sem_nome_40" x1="-18.8" y1="18.4" x2="72.81" y2="18.4" gradientUnits="userSpaceOnUse"><stop offset="0" stop-color="#23445d"/><stop offset="0.54" stop-color="#2883aa"/><stop offset="1" stop-color="#b1ddf0"/></linearGradient><linearGradient id="Gradiente_sem_nome_40-3" x1="-18.8" y1="42.59" x2="72.81" y2="42.59" xlink:href="#Gradiente_sem_nome_40"/><linearGradient id="Gradiente_sem_nome_40-5" x1="-18.8" y1="30.5" x2="72.81" y2="30.5" xlink:href="#Gradiente_sem_nome_40"/></defs><path class="cls-1" d="M18,23.42a5,5,0,1,0-5-5A5,5,0,0,0,18,23.42Z"/><path class="cls-1" d="M43,13.39a5,5,0,1,0,5,5A5,5,0,0,0,43,13.39Zm0,8.5a3.49,3.49,0,1,1,3.49-3.49A3.48,3.48,0,0,1,43,21.89Z"/><path class="cls-2" d="M23,42.59a5,5,0,1,0-5,5A5,5,0,0,0,23,42.59Z"/><path class="cls-2" d="M43,37.58a5,5,0,1,0,5,5A5,5,0,0,0,43,37.58Zm0,8.5a3.49,3.49,0,1,1,3.49-3.49A3.49,3.49,0,0,1,43,46.08Z"/><path class="cls-3" d="M55.69,27.57a5.31,5.31,0,1,0-5.31-5.3v3.78H34.94V10.61h3.78a5.31,5.31,0,1,0-5.3-5.31V9.09H27.57V5.3a5.31,5.31,0,1,0-5.3,5.31h3.78V26.05H10.61V22.27a5.31,5.31,0,1,0-5.31,5.3H9.09v5.85H5.3a5.31,5.31,0,1,0,5.31,5.3V34.94H26.05V50.38H22.27a5.31,5.31,0,1,0,5.3,5.31V51.91h5.85v3.78a5.31,5.31,0,1,0,5.3-5.31H34.94V34.94H50.38v3.78a5.31,5.31,0,1,0,5.31-5.3H51.91V27.57Zm-3.78-5.3a3.78,3.78,0,1,1,3.78,3.78H51.91Zm-17-17a3.78,3.78,0,1,1,3.78,3.79H34.94Zm-7.37,5.31h5.85V26.05H27.57Zm5.85,17v5.85H27.57V27.57ZM10.61,33.42V27.57H26.05v5.85ZM38.72,51.91a3.78,3.78,0,1,1-3.78,3.78V51.91Zm-5.3-1.53H27.57V34.94h5.85Zm17-17H34.94V27.57H50.38Zm5.31,1.52a3.78,3.78,0,1,1-3.78,3.78V34.94Z"/><path class="cls-4" d="M82.39,25.1c-2.12,0-3.19-1.08-3.19-2.66V18.8c0-1.6,1.07-2.66,3.19-2.66a15.87,15.87,0,0,1,2.78.27l-.24,1.71a21.87,21.87,0,0,0-2.54-.21c-1,0-1.23.51-1.23,1.19v3c0,.68.24,1.24,1.23,1.24a7.28,7.28,0,0,0,1.16-.08V20.59h1.84v4.1A11.19,11.19,0,0,1,82.39,25.1Z"/><path class="cls-4" d="M88.85,18.61v4.21a.4.4,0,0,0,.46.45,3.78,3.78,0,0,0,1.37-.45V18.61h1.88V25h-1.4L91,24.49a6.45,6.45,0,0,1-2.54.61c-1.09,0-1.46-.81-1.46-2V18.61Z"/><path class="cls-4" d="M94.26,17.81v-2h1.89v2Zm0,7.16V18.61h1.89V25Z"/><path class="cls-4" d="M97.52,20.83c0-1.51.65-2.35,2.14-2.35a7.53,7.53,0,0,1,1.63.18V16l1.88-.26V25h-1.48l-.19-.51a4.11,4.11,0,0,1-2,.64c-1.29,0-2-.79-2-2.35Zm3.77-.56a5.62,5.62,0,0,0-1.21-.16c-.49,0-.68.3-.68.72v1.92c0,.45.19.72.68.72a2.1,2.1,0,0,0,1.21-.5Z"/><path class="cls-4" d="M106.43,22.45v.18c0,.73.28.93,1.15.93a7.37,7.37,0,0,0,1.93-.27l.28,1.41a7.64,7.64,0,0,1-2.4.4c-2.06,0-2.85-1-2.85-2.58V21c0-1.37.62-2.54,2.74-2.54s2.57,1.25,2.57,2.64v1.33Zm1.64-1.69c0-.44-.13-.81-.78-.81a.75.75,0,0,0-.86.81V21h1.64Z"/><path class="cls-4" d="M117.71,17.4a5.12,5.12,0,0,0-.83-.09c-.6,0-.64.26-.64.68v.75h1.5l-.13,1.54h-1.37V25h-1.89V20.28h-1V18.74h1v-1c0-1.3.62-2,2.16-2a6.25,6.25,0,0,1,1.44.19Z"/><path class="cls-4" d="M118.47,22.53V21.05c0-1.31.62-2.57,2.88-2.57s2.88,1.26,2.88,2.57v1.48c0,1.31-.62,2.57-2.88,2.57S118.47,23.84,118.47,22.53Zm3.87,0V21c0-.6-.31-.94-1-.94s-1,.34-1,.94v1.58c0,.6.31.94,1,.94S122.34,23.18,122.34,22.58Z"/><path class="cls-4" d="M127.48,21.09V25H125.6V18.61h1.57l.13.61a6,6,0,0,1,1.71-.74l.16,1.77A9.86,9.86,0,0,0,127.48,21.09Z"/><path class="cls-4" d="M140.08,25h-2l-.47-1.7h-2.92l-.47,1.7h-2l2.66-8.7h2.61Zm-5-3.33h2l-1-3.65Z"/><path class="cls-4" d="M143,21.09V25h-1.89V18.61h1.57l.13.61a6,6,0,0,1,1.72-.74l.15,1.77A9.39,9.39,0,0,0,143,21.09Z"/><path class="cls-4" d="M147.71,25.1c-1.22,0-1.93-.45-1.93-1.63V20.12h-.86V18.61h.86V17.08l1.89-.26v1.79h1.45L149,20.12h-1.34v3.09c0,.26.15.35.39.35a2.6,2.6,0,0,0,.78-.12l.23,1.43A4.57,4.57,0,0,1,147.71,25.1Z"/><path class="cls-4" d="M150.28,17.81v-2h1.89v2Zm0,7.16V18.61h1.89V25Z"/><path class="cls-4" d="M158.74,25V20.11h-2.61V25h-1.88V20.11h-1v-1.5h1v-.83c0-1.3.61-2,2.15-2a4.74,4.74,0,0,1,1.31.17l-.23,1.48a3.86,3.86,0,0,0-.71-.08c-.6,0-.64.26-.64.68v.62h4.5V25Zm0-7.16v-2h1.89v2Z"/><path class="cls-4" d="M163.82,22.54c0,.66.28,1,1,1a5.66,5.66,0,0,0,1.31-.16l.24,1.57a7,7,0,0,1-1.55.19c-2.06,0-2.91-.77-2.91-2.58V21.06c0-1.81.85-2.58,2.91-2.58a7,7,0,0,1,1.55.19l-.24,1.57a6.69,6.69,0,0,0-1.31-.16c-.75,0-1,.3-1,1Z"/><path class="cls-4" d="M167.64,17.81v-2h1.88v2Zm0,7.16V18.61h1.88V25Z"/><path class="cls-4" d="M174.64,25l-.13-.4a4,4,0,0,1-1.82.53c-1.18,0-1.66-.85-1.66-1.93,0-1.28.59-1.79,1.89-1.79h1.38v-.49c0-.65-.12-.87-1.13-.87a8.67,8.67,0,0,0-1.72.18l-.25-1.41a9.05,9.05,0,0,1,2.29-.31c2.21,0,2.69.66,2.69,2.43V25Zm-.34-2.28h-.9c-.41,0-.57.1-.57.45s.15.5.51.5a2.19,2.19,0,0,0,1-.22Z"/><path class="cls-4" d="M177.75,25V16l1.89-.26V25Z"/><path class="cls-4" d="M184.15,25v-8.7h2V25Z"/><path class="cls-4" d="M191.59,25V20.76a.4.4,0,0,0-.46-.45,3.66,3.66,0,0,0-1.37.45V25h-1.89V18.61h1.4l.2.48a6.37,6.37,0,0,1,2.54-.61c1.08,0,1.46.81,1.46,2V25Z"/><path class="cls-4" d="M197.24,25.1c-1.22,0-1.92-.45-1.92-1.63V20.12h-.87V18.61h.87V17.08l1.88-.26v1.79h1.45l-.1,1.51H197.2v3.09c0,.26.16.35.39.35a2.71,2.71,0,0,0,.79-.12l.22,1.43A4.57,4.57,0,0,1,197.24,25.1Z"/><path class="cls-4" d="M201.37,22.45v.18c0,.73.29.93,1.15.93a7.45,7.45,0,0,0,1.94-.27l.27,1.41a7.52,7.52,0,0,1-2.39.4c-2.07,0-2.85-1-2.85-2.58V21c0-1.37.61-2.54,2.73-2.54s2.58,1.25,2.58,2.64v1.33ZM203,20.76c0-.44-.13-.81-.78-.81s-.87.37-.87.81V21H203Z"/><path class="cls-4" d="M206.17,25V16l1.89-.26V25Z"/><path class="cls-4" d="M209.76,25V16l1.88-.26V25Z"/><path class="cls-4" d="M213.34,17.81v-2h1.88v2Zm0,7.16V18.61h1.88V25Z"/><path class="cls-4" d="M216.53,20.55c0-1.28.74-2.07,2.61-2.07a4.32,4.32,0,0,1,1.08.13h2v.89l-.64.23a2.78,2.78,0,0,1,.17.82v.78c0,1.21-.85,2-2.6,2h-.2c-.13.08-.27.17-.27.36a.25.25,0,0,0,.2.26l1.59.15c1.07.1,1.54.46,1.54,1.56,0,1.53-1,2-2.93,2a11.42,11.42,0,0,1-2.54-.33l.28-1.37a9.58,9.58,0,0,0,2.09.26c1,0,1.37,0,1.37-.46,0-.24-.11-.31-.49-.35-.72-.06-.84-.08-1.62-.16s-1.37-.27-1.37-1.15a1.57,1.57,0,0,1,.55-1.16,1.75,1.75,0,0,1-.81-1.63Zm3.45.68v-.6c0-.42-.22-.66-.84-.66s-.85.24-.85.66v.6c0,.44.23.63.85.63S220,21.67,220,21.23Z"/><path class="cls-4" d="M224.81,22.45v.18c0,.73.29.93,1.15.93a7.5,7.5,0,0,0,1.94-.27l.27,1.41a7.52,7.52,0,0,1-2.39.4c-2.07,0-2.85-1-2.85-2.58V21c0-1.37.61-2.54,2.73-2.54s2.58,1.25,2.58,2.64v1.33Zm1.65-1.69c0-.44-.13-.81-.79-.81a.75.75,0,0,0-.86.81V21h1.65Z"/><path class="cls-4" d="M233.33,25V20.76a.4.4,0,0,0-.46-.45,3.66,3.66,0,0,0-1.37.45V25h-1.89V18.61H231l.2.48a6.37,6.37,0,0,1,2.53-.61c1.09,0,1.47.81,1.47,2V25Z"/><path class="cls-4" d="M238.34,22.54c0,.66.27,1,1,1a5.73,5.73,0,0,0,1.31-.16l.23,1.57a7,7,0,0,1-1.54.19c-2.07,0-2.92-.77-2.92-2.58V21.06c0-1.81.85-2.58,2.92-2.58a7,7,0,0,1,1.54.19l-.23,1.57a6.88,6.88,0,0,0-1.31-.16c-.76,0-1,.3-1,1Z"/><path class="cls-4" d="M243.71,22.45v.18c0,.73.29.93,1.15.93a7.45,7.45,0,0,0,1.94-.27l.27,1.41a7.52,7.52,0,0,1-2.39.4c-2.07,0-2.85-1-2.85-2.58V21c0-1.37.61-2.54,2.73-2.54s2.58,1.25,2.58,2.64v1.33Zm1.65-1.69c0-.44-.13-.81-.79-.81a.75.75,0,0,0-.86.81V21h1.65Z"/><path class="cls-4" d="M79.39,42.41v-8.7h5.48v1.74H81.35V37H84.6v1.74H81.35v1.9h3.52v1.73Z"/><path class="cls-4" d="M88.51,42.54c-1.22,0-1.92-.45-1.92-1.63V37.56h-.87V36.05h.87V34.52l1.88-.26v1.79h1.45l-.1,1.51H88.47v3.09c0,.26.16.35.39.35a2.32,2.32,0,0,0,.78-.12l.23,1.43A4.57,4.57,0,0,1,88.51,42.54Z"/><path class="cls-4" d="M94.8,42.41V38.2a.4.4,0,0,0-.46-.45,3.92,3.92,0,0,0-1.37.47v4.19H91.09v-9l1.85-.27V36.5a5.62,5.62,0,0,1,2.28-.58c1.08,0,1.46.81,1.46,2v4.45Z"/><path class="cls-4" d="M98.32,35.25v-2h1.88v2Zm0,7.16V36.05h1.88v6.36Z"/><path class="cls-4" d="M103.39,40c0,.66.28,1,1,1a5.59,5.59,0,0,0,1.31-.16l.24,1.57a7,7,0,0,1-1.55.19c-2.06,0-2.91-.77-2.91-2.58V38.5c0-1.81.85-2.58,2.91-2.58a7,7,0,0,1,1.55.19l-.24,1.57a6.69,6.69,0,0,0-1.31-.16c-.75,0-1,.3-1,1Z"/><path class="cls-4" d="M110.62,42.41l-.13-.4a3.92,3.92,0,0,1-1.81.53c-1.18,0-1.66-.85-1.66-1.93,0-1.28.58-1.79,1.89-1.79h1.37v-.49c0-.65-.11-.87-1.12-.87a8.85,8.85,0,0,0-1.73.18l-.24-1.41a9,9,0,0,1,2.28-.31c2.21,0,2.7.66,2.7,2.43v4.06Zm-.34-2.28h-.9c-.4,0-.56.1-.56.45s.14.5.51.5a2.11,2.11,0,0,0,1-.22Z"/><path class="cls-4" d="M113.74,42.41v-9l1.88-.27v9.23Z"/><path class="cls-4" d="M123.18,39.71H122v2.7h-2v-8.7h3.62c2.12,0,2.9.83,2.9,2.47v1.07a2.1,2.1,0,0,1-1.26,2.18l2.1,3H125.1Zm1.45-3.35c0-.65-.25-.91-1-.91H122V38h1.56c.83,0,1-.3,1-1Z"/><path class="cls-4" d="M130,39.89v.18c0,.73.28.93,1.15.93a7.43,7.43,0,0,0,1.93-.27l.28,1.41a7.64,7.64,0,0,1-2.4.4c-2.06,0-2.85-1-2.85-2.58V38.47c0-1.38.62-2.55,2.74-2.55s2.57,1.25,2.57,2.64v1.33Zm1.64-1.69c0-.44-.13-.81-.78-.81s-.86.37-.86.81v.28h1.64Z"/><path class="cls-4" d="M137.57,35.92a17.3,17.3,0,0,1,2.59.22V45l-1.88.26V42.19a4.94,4.94,0,0,1-1.81.35c-1.41,0-2-.87-2-2.3V38.6C134.51,37.08,134.94,35.92,137.57,35.92Zm.71,1.66a6.87,6.87,0,0,0-.78,0c-.94,0-1.11.43-1.11,1v1.65a.6.6,0,0,0,.68.68,2.87,2.87,0,0,0,1.21-.35Z"/><path class="cls-4" d="M143.68,36.05v4.21a.4.4,0,0,0,.45.45,3.71,3.71,0,0,0,1.38-.45V36.05h1.88v6.36H146l-.19-.48a6.45,6.45,0,0,1-2.54.61c-1.09,0-1.46-.81-1.46-2V36.05Z"/><path class="cls-4" d="M149.09,35.25v-2H151v2Zm0,7.16V36.05H151v6.36Z"/><path class="cls-4" d="M154.56,38.53v3.88h-1.88V36.05h1.57l.13.61a6,6,0,0,1,1.71-.74l.16,1.77A9.51,9.51,0,0,0,154.56,38.53Z"/><path class="cls-4" d="M158.75,39.89v.18c0,.73.28.93,1.15.93a7.43,7.43,0,0,0,1.93-.27l.27,1.41a7.52,7.52,0,0,1-2.39.4c-2.06,0-2.85-1-2.85-2.58V38.47c0-1.38.62-2.55,2.73-2.55s2.58,1.25,2.58,2.64v1.33Zm1.64-1.69c0-.44-.13-.81-.78-.81s-.86.37-.86.81v.28h1.64Z"/><path class="cls-4" d="M167.26,42.41V38.2a.4.4,0,0,0-.46-.45,3.66,3.66,0,0,0-1.37.45v4.21h-1.88V36.05h1.39l.2.48a6.41,6.41,0,0,1,2.54-.61,1.23,1.23,0,0,1,1.16.61,6.14,6.14,0,0,1,2.55-.61c1.08,0,1.46.81,1.46,2v4.45H171V38.2a.4.4,0,0,0-.46-.45,3.72,3.72,0,0,0-1.37.45v4.21Z"/><path class="cls-4" d="M176.05,39.89v.18c0,.73.29.93,1.15.93a7.37,7.37,0,0,0,1.93-.27l.28,1.41a7.57,7.57,0,0,1-2.39.4c-2.07,0-2.85-1-2.85-2.58V38.47c0-1.38.61-2.55,2.73-2.55s2.57,1.25,2.57,2.64v1.33Zm1.65-1.69c0-.44-.13-.81-.79-.81a.75.75,0,0,0-.86.81v.28h1.65Z"/><path class="cls-4" d="M184.56,42.41V38.2a.4.4,0,0,0-.45-.45,3.76,3.76,0,0,0-1.38.45v4.21h-1.88V36.05h1.4l.2.48a6.37,6.37,0,0,1,2.53-.61c1.09,0,1.47.81,1.47,2v4.45Z"/><path class="cls-4" d="M190.21,42.54c-1.21,0-1.92-.45-1.92-1.63V37.56h-.86V36.05h.86V34.52l1.89-.26v1.79h1.45l-.11,1.51h-1.34v3.09c0,.26.15.35.39.35a2.32,2.32,0,0,0,.78-.12l.22,1.43A4.46,4.46,0,0,1,190.21,42.54Z"/><path class="cls-4" d="M194.78,42.54a8.93,8.93,0,0,1-2.32-.37l.31-1.4a7.14,7.14,0,0,0,1.92.28c.56,0,.65-.15.65-.53s0-.46-1-.71c-1.54-.38-1.69-.8-1.69-2,0-1.34.53-1.9,2.43-1.9a9,9,0,0,1,1.94.21l-.17,1.46a10.1,10.1,0,0,0-1.75-.18c-.55,0-.68.14-.68.43s.05.44.81.61c1.81.41,2,.8,2,2.07S196.6,42.54,194.78,42.54Z"/><path class="cls-4" d="M201.2,42.41v-8.7h5.48v1.74h-3.52V37h3.24v1.74h-3.24v1.9h3.52v1.73Z"/><path class="cls-4" d="M208.19,42.41v-9l1.88-.27v9.23Z"/><path class="cls-4" d="M211.77,35.25v-2h1.88v2Zm0,7.16V36.05h1.88v6.36Z"/><path class="cls-4" d="M216.84,40c0,.66.28,1,1,1a5.73,5.73,0,0,0,1.31-.16l.23,1.57a7,7,0,0,1-1.54.19c-2.07,0-2.92-.77-2.92-2.58V38.5c0-1.81.85-2.58,2.92-2.58a7,7,0,0,1,1.54.19l-.23,1.57a6.88,6.88,0,0,0-1.31-.16c-.76,0-1,.3-1,1Z"/><path class="cls-4" d="M220.67,35.25v-2h1.88v2Zm0,7.16V36.05h1.88v6.36Z"/><path class="cls-4" d="M226.38,42.54c-1.22,0-1.92-.45-1.92-1.63V37.56h-.86V36.05h.86V34.52l1.88-.26v1.79h1.45l-.1,1.51h-1.35v3.09c0,.26.16.35.39.35a2.41,2.41,0,0,0,.79-.12l.22,1.43A4.57,4.57,0,0,1,226.38,42.54Z"/><path class="cls-4" d="M232.37,42.41l-.13-.4a4,4,0,0,1-1.82.53c-1.18,0-1.66-.85-1.66-1.93,0-1.28.59-1.79,1.9-1.79H232v-.49c0-.65-.12-.87-1.12-.87a8.69,8.69,0,0,0-1.73.18l-.25-1.41a9.12,9.12,0,0,1,2.29-.31c2.21,0,2.69.66,2.69,2.43v4.06ZM232,40.13h-.9c-.41,0-.56.1-.56.45s.14.5.51.5a2.15,2.15,0,0,0,.95-.22Z"/><path class="cls-4" d="M237.62,42.54c-1.22,0-1.93-.45-1.93-1.63V37.56h-.86V36.05h.86V34.52l1.89-.26v1.79H239l-.11,1.51h-1.34v3.09c0,.26.15.35.39.35a2.32,2.32,0,0,0,.78-.12l.22,1.43A4.45,4.45,0,0,1,237.62,42.54Z"/><path class="cls-4" d="M240.19,35.25v-2h1.89v2Zm0,7.16V36.05h1.89v6.36Z"/><path class="cls-4" d="M243.45,40V38.49c0-1.31.61-2.57,2.88-2.57s2.87,1.26,2.87,2.57V40c0,1.31-.61,2.57-2.87,2.57S243.45,41.28,243.45,40Zm3.87.05V38.44c0-.6-.31-.94-1-.94s-1,.34-1,.94V40c0,.6.32.94,1,.94S247.32,40.62,247.32,40Z"/><path class="cls-4" d="M254.29,42.41V38.2a.4.4,0,0,0-.46-.45,3.72,3.72,0,0,0-1.37.45v4.21h-1.88V36.05H252l.19.48a6.45,6.45,0,0,1,2.54-.61c1.09,0,1.47.81,1.47,2v4.45Z"/></svg>