<svg id="Camada_1" data-name="Camada 1" xmlns="http://www.w3.org/2000/svg" xmlns:xlink="http://www.w3.org/1999/xlink" viewBox="0 0 162.19 138.91"><defs><style>.cls-1{fill:url(#Gradiente_sem_nome_40);}.cls-2{fill:url(#Gradiente_sem_nome_40-3);}.cls-3{fill:url(#Gradiente_sem_nome_40-5);}.cls-4{fill:#10739e;}</style><linearGradient id="Gradiente_sem_nome_40" x1="35.92" y1="27.84" x2="126.32" y2="27.84" gradientUnits="userSpaceOnUse"><stop offset="0" stop-color="#23445d"/><stop offset="0.54" stop-color="#2883aa"/><stop offset="1" stop-color="#b1ddf0"/></linearGradient><linearGradient id="Gradiente_sem_nome_40-3" x1="35.92" y1="64.42" x2="126.32" y2="64.42" xlink:href="#Gradiente_sem_nome_40"/><linearGradient id="Gradiente_sem_nome_40-5" x1="35.92" y1="46.13" x2="126.32" y2="46.13" xlink:href="#Gradiente_sem_nome_40"/></defs><path class="cls-1" d="M62.19,35.42a7.59,7.59,0,1,0-7.58-7.58A7.59,7.59,0,0,0,62.19,35.42Z"/><path class="cls-1" d="M100,20.25a7.59,7.59,0,1,0,7.58,7.59A7.59,7.59,0,0,0,100,20.25Zm0,12.86a5.28,5.28,0,1,1,5.27-5.27A5.28,5.28,0,0,1,100,33.11Z"/><path class="cls-2" d="M69.77,64.42A7.58,7.58,0,1,0,62.19,72,7.59,7.59,0,0,0,69.77,64.42Z"/><path class="cls-2" d="M100,56.84a7.59,7.59,0,1,0,7.58,7.58A7.59,7.59,0,0,0,100,56.84Zm0,12.86a5.28,5.28,0,1,1,5.27-5.28A5.29,5.29,0,0,1,100,69.7Z"/><path class="cls-3" d="M119.2,41.71a8,8,0,1,0-8-8V39.4H87.82V16.05h5.72a8,8,0,1,0-8-8v5.72H76.67V8a8,8,0,1,0-8,8h5.72V39.4H51V33.69a8,8,0,1,0-8,8h5.72v8.84H43a8,8,0,1,0,8,8V52.86H74.37V76.21H68.65a8,8,0,1,0,8,8V78.52h8.84v5.71a8,8,0,1,0,8-8H87.82V52.86h23.35v5.71a8,8,0,1,0,8-8h-5.72V41.71Zm-5.72-8a5.72,5.72,0,1,1,5.72,5.71h-5.72ZM87.82,8a5.72,5.72,0,1,1,5.72,5.72H87.82Zm-11.15,8h8.84V39.4H76.67Zm8.84,25.66v8.84H76.67V41.71ZM51,50.55V41.71H74.37v8.84Zm42.53,28a5.72,5.72,0,1,1-5.72,5.71V78.52Zm-8-2.31H76.67V52.86h8.84Zm25.66-25.66H87.82V41.71h23.35Zm8,2.31a5.72,5.72,0,1,1-5.72,5.71V52.86Z"/><path class="cls-4" d="M7,120.43c-1.94,0-2.92-1-2.92-2.45v-3.33c0-1.48,1-2.45,2.92-2.45a14.41,14.41,0,0,1,2.56.25L9.35,114a18.33,18.33,0,0,0-2.34-.2c-.9,0-1.12.47-1.12,1.1v2.74c0,.63.22,1.14,1.12,1.14a7.24,7.24,0,0,0,1.07-.07v-2.45H9.77v3.76A10.16,10.16,0,0,1,7,120.43Z"/><path class="cls-4" d="M12.94,114.47v3.86a.37.37,0,0,0,.42.42,3.46,3.46,0,0,0,1.26-.42v-3.86h1.73v5.84H15.06l-.18-.44a6,6,0,0,1-2.32.56c-1,0-1.35-.74-1.35-1.87v-4.09Z"/><path class="cls-4" d="M17.91,113.74V111.9h1.73v1.84Zm0,6.57v-5.84h1.73v5.84Z"/><path class="cls-4" d="M20.9,116.51c0-1.38.6-2.16,2-2.16a6.85,6.85,0,0,1,1.49.17v-2.44l1.73-.24v8.47H24.72l-.18-.47a3.66,3.66,0,0,1-1.8.59c-1.18,0-1.84-.73-1.84-2.16Zm3.45-.52a5.33,5.33,0,0,0-1.1-.14c-.46,0-.62.27-.62.66v1.76c0,.41.16.66.62.66a2,2,0,0,0,1.1-.45Z"/><path class="cls-4" d="M29.07,118v.16c0,.67.26.86,1.05.86a6.72,6.72,0,0,0,1.78-.26l.25,1.3a7,7,0,0,1-2.19.37c-1.9,0-2.62-.94-2.62-2.37v-1.37c0-1.26.57-2.34,2.51-2.34s2.36,1.15,2.36,2.42V118Zm1.51-1.55c0-.41-.12-.75-.72-.75a.69.69,0,0,0-.79.75v.25h1.51Z"/><path class="cls-4" d="M39.42,113.37a4.34,4.34,0,0,0-.76-.09c-.56,0-.59.24-.59.63v.68h1.38L39.33,116H38.07v4.31H36.34V116h-.89v-1.41h.89v-.88c0-1.2.57-1.87,2-1.87a5.82,5.82,0,0,1,1.32.17Z"/><path class="cls-4" d="M40.12,118.07v-1.36c0-1.2.56-2.36,2.64-2.36s2.64,1.16,2.64,2.36v1.36c0,1.2-.57,2.36-2.64,2.36S40.12,119.27,40.12,118.07Zm3.55.05v-1.46c0-.55-.29-.86-.91-.86s-.91.31-.91.86v1.46c0,.55.29.86.91.86S43.67,118.67,43.67,118.12Z"/><path class="cls-4" d="M48.39,116.75v3.56H46.66v-5.84H48.1l.12.56a5.7,5.7,0,0,1,1.57-.68l.15,1.63A7.72,7.72,0,0,0,48.39,116.75Z"/><path class="cls-4" d="M59.94,120.31H58.07l-.43-1.56H55l-.43,1.56H52.66l2.44-8h2.39Zm-4.57-3.06h1.84l-.92-3.34Z"/><path class="cls-4" d="M62.57,116.75v3.56H60.84v-5.84h1.44l.12.56a5.76,5.76,0,0,1,1.58-.68l.14,1.63A7.72,7.72,0,0,0,62.57,116.75Z"/><path class="cls-4" d="M66.94,120.43c-1.12,0-1.76-.42-1.76-1.5v-3.07h-.8v-1.39h.8v-1.4l1.72-.24v1.64h1.33l-.09,1.39H66.9v2.83c0,.24.15.33.36.33a2.48,2.48,0,0,0,.72-.11l.21,1.3A3.92,3.92,0,0,1,66.94,120.43Z"/><path class="cls-4" d="M69.3,113.74V111.9H71v1.84Zm0,6.57v-5.84H71v5.84Z"/><path class="cls-4" d="M77.07,120.31v-4.46h-2.4v4.46H72.94v-4.46h-.89v-1.38h.89v-.76c0-1.2.56-1.87,2-1.87a4.1,4.1,0,0,1,1.2.16l-.22,1.35a3.9,3.9,0,0,0-.64-.07c-.56,0-.59.24-.59.63v.56h4.12v5.84Zm0-6.57V111.9h1.72v1.84Z"/><path class="cls-4" d="M81.72,118.08c0,.6.26.87,1,.87a4.75,4.75,0,0,0,1.2-.14l.22,1.44a6.38,6.38,0,0,1-1.42.18c-1.89,0-2.67-.71-2.67-2.37v-1.34c0-1.66.78-2.37,2.67-2.37a6.38,6.38,0,0,1,1.42.18L83.87,116a5.6,5.6,0,0,0-1.2-.14c-.69,0-1,.27-1,.87Z"/><path class="cls-4" d="M85.23,113.74V111.9H87v1.84Zm0,6.57v-5.84H87v5.84Z"/><path class="cls-4" d="M91.65,120.31l-.12-.37a3.58,3.58,0,0,1-1.67.49c-1.08,0-1.52-.78-1.52-1.77,0-1.18.54-1.65,1.74-1.65h1.25v-.44c0-.6-.1-.81-1-.81a8.86,8.86,0,0,0-1.58.17l-.23-1.29a8.13,8.13,0,0,1,2.1-.29c2,0,2.47.61,2.47,2.23v3.73Zm-.32-2.1h-.82c-.37,0-.52.1-.52.42s.13.46.47.46a1.93,1.93,0,0,0,.87-.21Z"/><path class="cls-4" d="M94.5,120.31v-8.23l1.73-.24v8.47Z"/><path class="cls-4" d="M100.37,120.31v-8h1.8v8Z"/><path class="cls-4" d="M107.2,120.31v-3.86a.37.37,0,0,0-.42-.42,3.28,3.28,0,0,0-1.26.42v3.86h-1.73v-5.84h1.29l.18.44a6,6,0,0,1,2.32-.56c1,0,1.35.74,1.35,1.87v4.09Z"/><path class="cls-4" d="M112.38,120.43c-1.11,0-1.76-.42-1.76-1.5v-3.07h-.79v-1.39h.79v-1.4l1.73-.24v1.64h1.33l-.1,1.39h-1.23v2.83c0,.24.14.33.36.33a2.58,2.58,0,0,0,.72-.11l.2,1.3A3.83,3.83,0,0,1,112.38,120.43Z"/><path class="cls-4" d="M116.18,118v.16c0,.67.26.86,1,.86a6.72,6.72,0,0,0,1.78-.26l.25,1.3a7,7,0,0,1-2.2.37c-1.89,0-2.61-.94-2.61-2.37v-1.37c0-1.26.56-2.34,2.51-2.34s2.36,1.15,2.36,2.42V118Zm1.51-1.55c0-.41-.12-.75-.72-.75a.69.69,0,0,0-.79.75v.25h1.51Z"/><path class="cls-4" d="M120.58,120.31v-8.23l1.73-.24v8.47Z"/><path class="cls-4" d="M123.87,120.31v-8.23l1.73-.24v8.47Z"/><path class="cls-4" d="M127.16,113.74V111.9h1.72v1.84Zm0,6.57v-5.84h1.72v5.84Z"/><path class="cls-4" d="M130.08,116.26c0-1.18.68-1.91,2.39-1.91a4.15,4.15,0,0,1,1,.12h1.82v.81l-.59.22a2.1,2.1,0,0,1,.16.76v.7c0,1.12-.78,1.86-2.39,1.86h-.18c-.12.08-.25.16-.25.33a.23.23,0,0,0,.19.24l1.45.14c1,.09,1.42.42,1.42,1.43,0,1.4-.88,1.83-2.69,1.83a10,10,0,0,1-2.33-.3l.26-1.26a8.44,8.44,0,0,0,1.92.24c.9,0,1.25,0,1.25-.42,0-.22-.1-.28-.45-.32l-1.49-.14c-.79-.09-1.25-.26-1.25-1.06a1.44,1.44,0,0,1,.51-1.07,1.59,1.59,0,0,1-.75-1.5Zm3.17.62v-.55c0-.38-.2-.61-.78-.61s-.78.23-.78.61v.55c0,.4.22.58.78.58S133.25,117.28,133.25,116.88Z"/><path class="cls-4" d="M137.68,118v.16c0,.67.26.86,1,.86a6.72,6.72,0,0,0,1.78-.26l.25,1.3a7,7,0,0,1-2.19.37c-1.9,0-2.62-.94-2.62-2.37v-1.37c0-1.26.57-2.34,2.51-2.34s2.36,1.15,2.36,2.42V118Zm1.51-1.55c0-.41-.12-.75-.72-.75a.69.69,0,0,0-.79.75v.25h1.51Z"/><path class="cls-4" d="M145.49,120.31v-3.86a.37.37,0,0,0-.42-.42,3.28,3.28,0,0,0-1.26.42v3.86h-1.73v-5.84h1.29l.18.44a6,6,0,0,1,2.32-.56c1,0,1.35.74,1.35,1.87v4.09Z"/><path class="cls-4" d="M150.09,118.08c0,.6.25.87.95.87a4.73,4.73,0,0,0,1.19-.14l.22,1.44a6.37,6.37,0,0,1-1.41.18c-1.9,0-2.68-.71-2.68-2.37v-1.34c0-1.66.78-2.37,2.68-2.37a6.37,6.37,0,0,1,1.41.18l-.22,1.44a5.59,5.59,0,0,0-1.19-.14c-.7,0-.95.27-.95.87Z"/><path class="cls-4" d="M155,118v.16c0,.67.26.86,1,.86a6.72,6.72,0,0,0,1.78-.26l.25,1.3a7,7,0,0,1-2.19.37c-1.9,0-2.62-.94-2.62-2.37v-1.37c0-1.26.57-2.34,2.51-2.34s2.36,1.15,2.36,2.42V118Zm1.51-1.55c0-.41-.12-.75-.72-.75a.69.69,0,0,0-.79.75v.25h1.51Z"/><path class="cls-4" d="M0,136.31v-8H5v1.6H1.8v1.46h3V133h-3v1.74H5v1.59Z"/><path class="cls-4" d="M8.36,136.43c-1.11,0-1.76-.42-1.76-1.5v-3.07H5.81v-1.39H6.6v-1.4l1.73-.24v1.64H9.66l-.1,1.39H8.33v2.83c0,.24.14.33.36.33a2.58,2.58,0,0,0,.72-.11l.2,1.3A3.83,3.83,0,0,1,8.36,136.43Z"/><path class="cls-4" d="M14.13,136.31v-3.86a.37.37,0,0,0-.42-.42,3.65,3.65,0,0,0-1.25.43v3.85H10.73v-8.23l1.7-.24v3a5.23,5.23,0,0,1,2.09-.54c1,0,1.34.74,1.34,1.87v4.09Z"/><path class="cls-4" d="M17.36,129.74V127.9h1.73v1.84Zm0,6.57v-5.84h1.73v5.84Z"/><path class="cls-4" d="M22,134.08c0,.6.25.87.95.87a4.81,4.81,0,0,0,1.2-.14l.21,1.44a6.37,6.37,0,0,1-1.41.18c-1.9,0-2.68-.71-2.68-2.37v-1.34c0-1.66.78-2.37,2.68-2.37a6.37,6.37,0,0,1,1.41.18L24.17,132a5.68,5.68,0,0,0-1.2-.14c-.7,0-.95.27-.95.87Z"/><path class="cls-4" d="M28.65,136.31l-.12-.37a3.58,3.58,0,0,1-1.66.49c-1.08,0-1.53-.78-1.53-1.77,0-1.18.54-1.65,1.74-1.65h1.26v-.44c0-.6-.11-.81-1-.81a8.76,8.76,0,0,0-1.58.17l-.23-1.29a8.13,8.13,0,0,1,2.1-.29c2,0,2.47.61,2.47,2.23v3.73Zm-.31-2.1h-.83c-.37,0-.51.1-.51.42s.13.46.47.46a1.93,1.93,0,0,0,.87-.21Z"/><path class="cls-4" d="M31.51,136.31v-8.23l1.73-.24v8.47Z"/><path class="cls-4" d="M40.17,133.83H39.12v2.48h-1.8v-8h3.32c1.94,0,2.66.77,2.66,2.27v1a1.94,1.94,0,0,1-1.16,2l1.93,2.73H41.94Zm1.33-3.07c0-.6-.22-.84-1-.84H39.12v2.35h1.42c.77,0,1-.28,1-.88Z"/><path class="cls-4" d="M46.46,134v.16c0,.67.27.86,1.06.86a6.59,6.59,0,0,0,1.77-.26l.25,1.3a6.92,6.92,0,0,1-2.19.37c-1.9,0-2.62-.94-2.62-2.37v-1.37c0-1.26.57-2.34,2.51-2.34s2.36,1.15,2.36,2.42V134ZM48,132.45c0-.41-.12-.75-.72-.75a.69.69,0,0,0-.79.75v.25H48Z"/><path class="cls-4" d="M53.37,130.35a15.81,15.81,0,0,1,2.38.2v8.12l-1.73.24v-2.8a4.57,4.57,0,0,1-1.65.32c-1.3,0-1.8-.8-1.8-2.11v-1.51C50.57,131.42,51,130.35,53.37,130.35Zm.65,1.52c-.25,0-.47,0-.71,0-.86,0-1,.39-1,1v1.51a.55.55,0,0,0,.63.62,2.5,2.5,0,0,0,1.1-.32Z"/><path class="cls-4" d="M59,130.47v3.86a.37.37,0,0,0,.42.42,3.46,3.46,0,0,0,1.26-.42v-3.86h1.72v5.84H61.1l-.18-.44a6,6,0,0,1-2.33.56c-1,0-1.34-.74-1.34-1.87v-4.09Z"/><path class="cls-4" d="M64,129.74V127.9h1.72v1.84Zm0,6.57v-5.84h1.72v5.84Z"/><path class="cls-4" d="M69,132.75v3.56H67.23v-5.84h1.44l.12.56a5.76,5.76,0,0,1,1.58-.68l.14,1.63A7.72,7.72,0,0,0,69,132.75Z"/><path class="cls-4" d="M72.8,134v.16c0,.67.27.86,1.06.86a6.59,6.59,0,0,0,1.77-.26l.25,1.3a7,7,0,0,1-2.19.37c-1.9,0-2.62-.94-2.62-2.37v-1.37c0-1.26.57-2.34,2.51-2.34s2.36,1.15,2.36,2.42V134Zm1.51-1.55c0-.41-.12-.75-.72-.75a.69.69,0,0,0-.79.75v.25h1.51Z"/><path class="cls-4" d="M80.61,136.31v-3.86a.37.37,0,0,0-.42-.42,3.28,3.28,0,0,0-1.26.42v3.86H77.21v-5.84h1.28l.18.44a6,6,0,0,1,2.33-.56,1.12,1.12,0,0,1,1.06.56,5.68,5.68,0,0,1,2.34-.56c1,0,1.35.74,1.35,1.87v4.09H84v-3.86a.37.37,0,0,0-.42-.42,3.28,3.28,0,0,0-1.26.42v3.86Z"/><path class="cls-4" d="M88.68,134v.16c0,.67.26.86,1,.86a6.72,6.72,0,0,0,1.78-.26l.25,1.3a7,7,0,0,1-2.19.37c-1.9,0-2.62-.94-2.62-2.37v-1.37c0-1.26.56-2.34,2.51-2.34s2.36,1.15,2.36,2.42V134Zm1.51-1.55c0-.41-.12-.75-.72-.75a.69.69,0,0,0-.79.75v.25h1.51Z"/><path class="cls-4" d="M96.49,136.31v-3.86a.37.37,0,0,0-.42-.42,3.28,3.28,0,0,0-1.26.42v3.86H93.08v-5.84h1.29l.18.44a6,6,0,0,1,2.32-.56c1,0,1.35.74,1.35,1.87v4.09Z"/><path class="cls-4" d="M101.67,136.43c-1.11,0-1.76-.42-1.76-1.5v-3.07h-.79v-1.39h.79v-1.4l1.73-.24v1.64H103l-.1,1.39h-1.23v2.83c0,.24.14.33.36.33a2.58,2.58,0,0,0,.72-.11l.2,1.3A3.83,3.83,0,0,1,101.67,136.43Z"/><path class="cls-4" d="M105.86,136.43a7.77,7.77,0,0,1-2.12-.35l.27-1.28a6.54,6.54,0,0,0,1.77.26c.51,0,.6-.14.6-.49s0-.42-.95-.65c-1.42-.34-1.55-.73-1.55-1.82s.48-1.75,2.23-1.75a8.78,8.78,0,0,1,1.78.19l-.16,1.34a10.32,10.32,0,0,0-1.61-.16c-.5,0-.62.13-.62.39s0,.41.74.57c1.67.37,1.79.73,1.79,1.89S107.53,136.43,105.86,136.43Z"/><path class="cls-4" d="M111.75,136.31v-8h5v1.6h-3.23v1.46h3V133h-3v1.74h3.23v1.59Z"/><path class="cls-4" d="M118.16,136.31v-8.23l1.73-.24v8.47Z"/><path class="cls-4" d="M121.45,129.74V127.9h1.73v1.84Zm0,6.57v-5.84h1.73v5.84Z"/><path class="cls-4" d="M126.1,134.08c0,.6.26.87,1,.87a4.75,4.75,0,0,0,1.2-.14l.22,1.44a6.38,6.38,0,0,1-1.42.18c-1.89,0-2.67-.71-2.67-2.37v-1.34c0-1.66.78-2.37,2.67-2.37a6.38,6.38,0,0,1,1.42.18l-.22,1.44a5.6,5.6,0,0,0-1.2-.14c-.69,0-1,.27-1,.87Z"/><path class="cls-4" d="M129.61,129.74V127.9h1.73v1.84Zm0,6.57v-5.84h1.73v5.84Z"/><path class="cls-4" d="M134.85,136.43c-1.11,0-1.76-.42-1.76-1.5v-3.07h-.79v-1.39h.79v-1.4l1.73-.24v1.64h1.33l-.1,1.39h-1.23v2.83c0,.24.14.33.36.33a2.58,2.58,0,0,0,.72-.11l.2,1.3A3.83,3.83,0,0,1,134.85,136.43Z"/><path class="cls-4" d="M140.35,136.31l-.12-.37a3.58,3.58,0,0,1-1.67.49c-1.08,0-1.52-.78-1.52-1.77,0-1.18.54-1.65,1.74-1.65H140v-.44c0-.6-.11-.81-1-.81a8.86,8.86,0,0,0-1.58.17l-.23-1.29a8.19,8.19,0,0,1,2.1-.29c2,0,2.47.61,2.47,2.23v3.73Zm-.31-2.1h-.83c-.37,0-.52.1-.52.42s.13.46.47.46a2,2,0,0,0,.88-.21Z"/><path class="cls-4" d="M145.16,136.43c-1.12,0-1.76-.42-1.76-1.5v-3.07h-.79v-1.39h.79v-1.4l1.72-.24v1.64h1.34l-.1,1.39h-1.24v2.83c0,.24.15.33.36.33a2.48,2.48,0,0,0,.72-.11l.21,1.3A3.87,3.87,0,0,1,145.16,136.43Z"/><path class="cls-4" d="M147.53,129.74V127.9h1.72v1.84Zm0,6.57v-5.84h1.72v5.84Z"/><path class="cls-4" d="M150.51,134.07v-1.36c0-1.2.57-2.36,2.64-2.36s2.64,1.16,2.64,2.36v1.36c0,1.2-.56,2.36-2.64,2.36S150.51,135.27,150.51,134.07Zm3.55.05v-1.46c0-.55-.28-.86-.91-.86s-.91.31-.91.86v1.46c0,.55.29.86.91.86S154.06,134.67,154.06,134.12Z"/><path class="cls-4" d="M160.46,136.31v-3.86A.37.37,0,0,0,160,132a3.28,3.28,0,0,0-1.26.42v3.86h-1.73v-5.84h1.29l.18.44a6,6,0,0,1,2.32-.56c1,0,1.35.74,1.35,1.87v4.09Z"/></svg>